<?xml version="1.0" encoding="utf-8" standalone="no"?>
<!DOCTYPE svg PUBLIC "-//W3C//DTD SVG 1.1//EN"
  "http://www.w3.org/Graphics/SVG/1.1/DTD/svg11.dtd">
<svg xmlns:xlink="http://www.w3.org/1999/xlink" width="432pt" height="288pt" viewBox="0 0 432 288" xmlns="http://www.w3.org/2000/svg" version="1.1">
 <metadata>
  <rdf:RDF xmlns:dc="http://purl.org/dc/elements/1.1/" xmlns:cc="http://creativecommons.org/ns#" xmlns:rdf="http://www.w3.org/1999/02/22-rdf-syntax-ns#">
   <cc:Work>
    <dc:type rdf:resource="http://purl.org/dc/dcmitype/StillImage"/>
    <dc:date>2023-09-13T19:13:58.015277</dc:date>
    <dc:format>image/svg+xml</dc:format>
    <dc:creator>
     <cc:Agent>
      <dc:title>Matplotlib v3.7.3, https://matplotlib.org/</dc:title>
     </cc:Agent>
    </dc:creator>
   </cc:Work>
  </rdf:RDF>
 </metadata>
 <defs>
  <style type="text/css">*{stroke-linejoin: round; stroke-linecap: butt}</style>
 </defs>
 <g id="figure_1">
  <g id="patch_1">
   <path d="M 0 288 
L 432 288 
L 432 0 
L 0 0 
L 0 288 
z
" style="fill: none"/>
  </g>
  <g id="axes_1">
   <g id="patch_2">
    <path d="M 49.88125 277.2 
L 421.2 277.2 
L 421.2 10.8 
L 49.88125 10.8 
L 49.88125 277.2 
z
" style="fill: none"/>
   </g>
   <g id="line2d_1">
    <path d="M 124.145 27.45 
L 198.40875 27.45 
" clip-path="url(#pd888fc96b9)" style="fill: none; stroke: #000000; stroke-width: 0.5; stroke-linecap: square"/>
   </g>
   <g id="line2d_2">
    <path d="M 124.145 35.775 
L 198.40875 35.775 
" clip-path="url(#pd888fc96b9)" style="fill: none; stroke: #000000; stroke-width: 0.5; stroke-linecap: square"/>
   </g>
   <g id="line2d_3">
    <path d="M 124.145 44.1 
L 198.40875 44.1 
" clip-path="url(#pd888fc96b9)" style="fill: none; stroke: #000000; stroke-width: 0.5; stroke-linecap: square"/>
   </g>
   <g id="line2d_4">
    <path d="M 124.145 52.425 
L 198.40875 52.425 
" clip-path="url(#pd888fc96b9)" style="fill: none; stroke: #000000; stroke-width: 0.5; stroke-linecap: square"/>
   </g>
   <g id="line2d_5">
    <path d="M 124.145 52.425 
L 198.40875 60.75 
" clip-path="url(#pd888fc96b9)" style="fill: none; stroke: #000000; stroke-width: 0.5; stroke-linecap: square"/>
   </g>
   <g id="line2d_6">
    <path d="M 124.145 60.75 
L 198.40875 69.075 
" clip-path="url(#pd888fc96b9)" style="fill: none; stroke: #000000; stroke-width: 0.5; stroke-linecap: square"/>
   </g>
   <g id="line2d_7">
    <path d="M 124.145 60.75 
L 198.40875 77.4 
" clip-path="url(#pd888fc96b9)" style="fill: none; stroke: #000000; stroke-width: 0.5; stroke-linecap: square"/>
   </g>
   <g id="line2d_8">
    <path d="M 124.145 60.75 
L 198.40875 85.725 
" clip-path="url(#pd888fc96b9)" style="fill: none; stroke: #000000; stroke-width: 0.5; stroke-linecap: square"/>
   </g>
   <g id="line2d_9">
    <path d="M 124.145 69.075 
L 198.40875 94.05 
" clip-path="url(#pd888fc96b9)" style="fill: none; stroke: #000000; stroke-width: 0.5; stroke-linecap: square"/>
   </g>
   <g id="line2d_10">
    <path d="M 124.145 77.4 
L 198.40875 102.375 
" clip-path="url(#pd888fc96b9)" style="fill: none; stroke: #000000; stroke-width: 0.5; stroke-linecap: square"/>
   </g>
   <g id="line2d_11">
    <path d="M 124.145 85.725 
L 198.40875 110.7 
" clip-path="url(#pd888fc96b9)" style="fill: none; stroke: #000000; stroke-width: 0.5; stroke-linecap: square"/>
   </g>
   <g id="line2d_12">
    <path d="M 124.145 94.05 
L 198.40875 119.025 
" clip-path="url(#pd888fc96b9)" style="fill: none; stroke: #000000; stroke-width: 0.5; stroke-linecap: square"/>
   </g>
   <g id="line2d_13">
    <path d="M 124.145 102.375 
L 198.40875 119.025 
" clip-path="url(#pd888fc96b9)" style="fill: none; stroke: #000000; stroke-width: 0.5; stroke-linecap: square"/>
   </g>
   <g id="line2d_14">
    <path d="M 124.145 110.7 
L 198.40875 127.35 
" clip-path="url(#pd888fc96b9)" style="fill: none; stroke: #000000; stroke-width: 0.5; stroke-linecap: square"/>
   </g>
   <g id="line2d_15">
    <path d="M 124.145 119.025 
L 198.40875 135.675 
" clip-path="url(#pd888fc96b9)" style="fill: none; stroke: #000000; stroke-width: 0.5; stroke-linecap: square"/>
   </g>
   <g id="line2d_16">
    <path d="M 124.145 119.025 
L 198.40875 144 
" clip-path="url(#pd888fc96b9)" style="fill: none; stroke: #000000; stroke-width: 0.5; stroke-linecap: square"/>
   </g>
   <g id="line2d_17">
    <path d="M 124.145 119.025 
L 198.40875 152.325 
" clip-path="url(#pd888fc96b9)" style="fill: none; stroke: #000000; stroke-width: 0.5; stroke-linecap: square"/>
   </g>
   <g id="line2d_18">
    <path d="M 124.145 127.35 
L 198.40875 160.65 
" clip-path="url(#pd888fc96b9)" style="fill: none; stroke: #000000; stroke-width: 0.5; stroke-linecap: square"/>
   </g>
   <g id="line2d_19">
    <path d="M 124.145 135.675 
L 198.40875 168.975 
" clip-path="url(#pd888fc96b9)" style="fill: none; stroke: #000000; stroke-width: 0.5; stroke-linecap: square"/>
   </g>
   <g id="line2d_20">
    <path d="M 124.145 135.675 
L 198.40875 177.3 
" clip-path="url(#pd888fc96b9)" style="fill: none; stroke: #000000; stroke-width: 0.5; stroke-linecap: square"/>
   </g>
   <g id="line2d_21">
    <path d="M 124.145 135.675 
L 198.40875 185.625 
" clip-path="url(#pd888fc96b9)" style="fill: none; stroke: #000000; stroke-width: 0.5; stroke-linecap: square"/>
   </g>
   <g id="line2d_22">
    <path d="M 124.145 135.675 
L 198.40875 193.95 
" clip-path="url(#pd888fc96b9)" style="fill: none; stroke: #000000; stroke-width: 0.5; stroke-linecap: square"/>
   </g>
   <g id="line2d_23">
    <path d="M 124.145 135.675 
L 198.40875 202.275 
" clip-path="url(#pd888fc96b9)" style="fill: none; stroke: #000000; stroke-width: 0.5; stroke-linecap: square"/>
   </g>
   <g id="line2d_24">
    <path d="M 124.145 135.675 
L 198.40875 210.6 
" clip-path="url(#pd888fc96b9)" style="fill: none; stroke: #000000; stroke-width: 0.5; stroke-linecap: square"/>
   </g>
   <g id="line2d_25">
    <path d="M 124.145 144 
L 198.40875 218.925 
" clip-path="url(#pd888fc96b9)" style="fill: none; stroke: #000000; stroke-width: 0.5; stroke-linecap: square"/>
   </g>
   <g id="line2d_26">
    <path d="M 124.145 152.325 
L 198.40875 227.25 
" clip-path="url(#pd888fc96b9)" style="fill: none; stroke: #000000; stroke-width: 0.5; stroke-linecap: square"/>
   </g>
   <g id="line2d_27">
    <path d="M 124.145 160.65 
L 198.40875 235.575 
" clip-path="url(#pd888fc96b9)" style="fill: none; stroke: #000000; stroke-width: 0.5; stroke-linecap: square"/>
   </g>
   <g id="line2d_28">
    <path d="M 124.145 168.975 
L 198.40875 243.9 
" clip-path="url(#pd888fc96b9)" style="fill: none; stroke: #000000; stroke-width: 0.5; stroke-linecap: square"/>
   </g>
   <g id="line2d_29">
    <path d="M 124.145 177.3 
L 198.40875 252.225 
" clip-path="url(#pd888fc96b9)" style="fill: none; stroke: #000000; stroke-width: 0.5; stroke-linecap: square"/>
   </g>
   <g id="line2d_30">
    <path d="M 124.145 185.625 
L 198.40875 260.55 
" clip-path="url(#pd888fc96b9)" style="fill: none; stroke: #000000; stroke-width: 0.5; stroke-linecap: square"/>
   </g>
   <g id="line2d_31">
    <path d="M 124.145 185.625 
L 198.40875 268.875 
" clip-path="url(#pd888fc96b9)" style="fill: none; stroke: #000000; stroke-width: 0.5; stroke-linecap: square"/>
   </g>
   <g id="line2d_32">
    <path d="M 272.6725 27.45 
L 346.93625 27.45 
" clip-path="url(#pd888fc96b9)" style="fill: none; stroke: #000000; stroke-width: 0.5; stroke-linecap: square"/>
   </g>
   <g id="line2d_33">
    <path d="M 272.6725 35.775 
L 346.93625 35.775 
" clip-path="url(#pd888fc96b9)" style="fill: none; stroke: #000000; stroke-width: 0.5; stroke-linecap: square"/>
   </g>
   <g id="line2d_34">
    <path d="M 272.6725 44.1 
L 346.93625 44.1 
" clip-path="url(#pd888fc96b9)" style="fill: none; stroke: #000000; stroke-width: 0.5; stroke-linecap: square"/>
   </g>
   <g id="line2d_35">
    <path d="M 272.6725 52.425 
L 346.93625 52.425 
" clip-path="url(#pd888fc96b9)" style="fill: none; stroke: #000000; stroke-width: 0.5; stroke-linecap: square"/>
   </g>
   <g id="line2d_36">
    <path d="M 272.6725 60.75 
L 346.93625 60.75 
" clip-path="url(#pd888fc96b9)" style="fill: none; stroke: #000000; stroke-width: 0.5; stroke-linecap: square"/>
   </g>
   <g id="line2d_37">
    <path d="M 272.6725 69.075 
L 346.93625 69.075 
" clip-path="url(#pd888fc96b9)" style="fill: none; stroke: #000000; stroke-width: 0.5; stroke-linecap: square"/>
   </g>
   <g id="line2d_38">
    <path d="M 272.6725 77.4 
L 346.93625 77.4 
" clip-path="url(#pd888fc96b9)" style="fill: none; stroke: #000000; stroke-width: 0.5; stroke-linecap: square"/>
   </g>
   <g id="line2d_39">
    <path d="M 272.6725 85.725 
L 346.93625 85.725 
" clip-path="url(#pd888fc96b9)" style="fill: none; stroke: #000000; stroke-width: 0.5; stroke-linecap: square"/>
   </g>
   <g id="line2d_40">
    <path d="M 272.6725 94.05 
L 346.93625 94.05 
" clip-path="url(#pd888fc96b9)" style="fill: none; stroke: #000000; stroke-width: 0.5; stroke-linecap: square"/>
   </g>
   <g id="line2d_41">
    <path d="M 272.6725 102.375 
L 346.93625 102.375 
" clip-path="url(#pd888fc96b9)" style="fill: none; stroke: #000000; stroke-width: 0.5; stroke-linecap: square"/>
   </g>
   <g id="line2d_42">
    <path d="M 272.6725 110.7 
L 346.93625 110.7 
" clip-path="url(#pd888fc96b9)" style="fill: none; stroke: #000000; stroke-width: 0.5; stroke-linecap: square"/>
   </g>
   <g id="line2d_43">
    <path d="M 272.6725 119.025 
L 346.93625 119.025 
" clip-path="url(#pd888fc96b9)" style="fill: none; stroke: #000000; stroke-width: 0.5; stroke-linecap: square"/>
   </g>
   <g id="line2d_44">
    <path d="M 272.6725 127.35 
L 346.93625 127.35 
" clip-path="url(#pd888fc96b9)" style="fill: none; stroke: #000000; stroke-width: 0.5; stroke-linecap: square"/>
   </g>
   <g id="line2d_45">
    <path d="M 272.6725 135.675 
L 346.93625 135.675 
" clip-path="url(#pd888fc96b9)" style="fill: none; stroke: #000000; stroke-width: 0.5; stroke-linecap: square"/>
   </g>
   <g id="line2d_46">
    <path d="M 272.6725 144 
L 346.93625 144 
" clip-path="url(#pd888fc96b9)" style="fill: none; stroke: #000000; stroke-width: 0.5; stroke-linecap: square"/>
   </g>
   <g id="line2d_47">
    <path d="M 272.6725 152.325 
L 346.93625 152.325 
" clip-path="url(#pd888fc96b9)" style="fill: none; stroke: #000000; stroke-width: 0.5; stroke-linecap: square"/>
   </g>
   <g id="line2d_48">
    <path d="M 272.6725 160.65 
L 346.93625 160.65 
" clip-path="url(#pd888fc96b9)" style="fill: none; stroke: #000000; stroke-width: 0.5; stroke-linecap: square"/>
   </g>
   <g id="line2d_49">
    <path d="M 272.6725 168.975 
L 346.93625 168.975 
" clip-path="url(#pd888fc96b9)" style="fill: none; stroke: #000000; stroke-width: 0.5; stroke-linecap: square"/>
   </g>
   <g id="line2d_50">
    <path d="M 272.6725 177.3 
L 346.93625 177.3 
" clip-path="url(#pd888fc96b9)" style="fill: none; stroke: #000000; stroke-width: 0.5; stroke-linecap: square"/>
   </g>
   <g id="line2d_51">
    <path d="M 272.6725 185.625 
L 346.93625 185.625 
" clip-path="url(#pd888fc96b9)" style="fill: none; stroke: #000000; stroke-width: 0.5; stroke-linecap: square"/>
   </g>
   <g id="line2d_52">
    <path d="M 272.6725 193.95 
L 346.93625 193.95 
" clip-path="url(#pd888fc96b9)" style="fill: none; stroke: #000000; stroke-width: 0.5; stroke-linecap: square"/>
   </g>
   <g id="line2d_53">
    <path d="M 272.6725 202.275 
L 346.93625 202.275 
" clip-path="url(#pd888fc96b9)" style="fill: none; stroke: #000000; stroke-width: 0.5; stroke-linecap: square"/>
   </g>
   <g id="line2d_54">
    <path d="M 272.6725 210.6 
L 346.93625 210.6 
" clip-path="url(#pd888fc96b9)" style="fill: none; stroke: #000000; stroke-width: 0.5; stroke-linecap: square"/>
   </g>
   <g id="line2d_55">
    <path d="M 272.6725 218.925 
L 346.93625 218.925 
" clip-path="url(#pd888fc96b9)" style="fill: none; stroke: #000000; stroke-width: 0.5; stroke-linecap: square"/>
   </g>
   <g id="line2d_56">
    <path d="M 272.6725 227.25 
L 346.93625 227.25 
" clip-path="url(#pd888fc96b9)" style="fill: none; stroke: #000000; stroke-width: 0.5; stroke-linecap: square"/>
   </g>
   <g id="line2d_57">
    <path d="M 272.6725 235.575 
L 346.93625 235.575 
" clip-path="url(#pd888fc96b9)" style="fill: none; stroke: #000000; stroke-width: 0.5; stroke-linecap: square"/>
   </g>
   <g id="line2d_58">
    <path d="M 272.6725 243.9 
L 346.93625 243.9 
" clip-path="url(#pd888fc96b9)" style="fill: none; stroke: #000000; stroke-width: 0.5; stroke-linecap: square"/>
   </g>
   <g id="line2d_59">
    <path d="M 272.6725 252.225 
L 346.93625 252.225 
" clip-path="url(#pd888fc96b9)" style="fill: none; stroke: #000000; stroke-width: 0.5; stroke-linecap: square"/>
   </g>
   <g id="line2d_60">
    <path d="M 272.6725 260.55 
L 346.93625 260.55 
" clip-path="url(#pd888fc96b9)" style="fill: none; stroke: #000000; stroke-width: 0.5; stroke-linecap: square"/>
   </g>
   <g id="line2d_61">
    <path d="M 272.6725 268.875 
L 346.93625 268.875 
" clip-path="url(#pd888fc96b9)" style="fill: none; stroke: #000000; stroke-width: 0.5; stroke-linecap: square"/>
   </g>
   <g id="patch_3">
    <path d="M 49.88125 35.775 
L 124.145 35.775 
L 124.145 27.45 
L 49.88125 27.45 
z
" clip-path="url(#pd888fc96b9)" style="fill: #ffb400; stroke: #000000; stroke-linejoin: miter"/>
   </g>
   <g id="patch_4">
    <path d="M 49.88125 44.1 
L 124.145 44.1 
L 124.145 35.775 
L 49.88125 35.775 
z
" clip-path="url(#pd888fc96b9)" style="fill: #5e569b; stroke: #000000; stroke-linejoin: miter"/>
   </g>
   <g id="patch_5">
    <path d="M 49.88125 52.425 
L 124.145 52.425 
L 124.145 44.1 
L 49.88125 44.1 
z
" clip-path="url(#pd888fc96b9)" style="fill: #5e569b; stroke: #000000; stroke-linejoin: miter"/>
   </g>
   <g id="patch_6">
    <path d="M 49.88125 60.75 
L 124.145 60.75 
L 124.145 52.425 
L 49.88125 52.425 
z
" clip-path="url(#pd888fc96b9)" style="fill: #48446e; stroke: #000000; stroke-linejoin: miter"/>
   </g>
   <g id="patch_7">
    <path d="M 49.88125 69.075 
L 124.145 69.075 
L 124.145 60.75 
L 49.88125 60.75 
z
" clip-path="url(#pd888fc96b9)" style="fill: #5e569b; stroke: #000000; stroke-linejoin: miter"/>
   </g>
   <g id="patch_8">
    <path d="M 49.88125 77.4 
L 124.145 77.4 
L 124.145 69.075 
L 49.88125 69.075 
z
" clip-path="url(#pd888fc96b9)" style="fill: #5e569b; stroke: #000000; stroke-linejoin: miter"/>
   </g>
   <g id="patch_9">
    <path d="M 49.88125 85.725 
L 124.145 85.725 
L 124.145 77.4 
L 49.88125 77.4 
z
" clip-path="url(#pd888fc96b9)" style="fill: #48446e; stroke: #000000; stroke-linejoin: miter"/>
   </g>
   <g id="patch_10">
    <path d="M 49.88125 94.05 
L 124.145 94.05 
L 124.145 85.725 
L 49.88125 85.725 
z
" clip-path="url(#pd888fc96b9)" style="fill: #48446e; stroke: #000000; stroke-linejoin: miter"/>
   </g>
   <g id="patch_11">
    <path d="M 49.88125 102.375 
L 124.145 102.375 
L 124.145 94.05 
L 49.88125 94.05 
z
" clip-path="url(#pd888fc96b9)" style="fill: #5e569b; stroke: #000000; stroke-linejoin: miter"/>
   </g>
   <g id="patch_12">
    <path d="M 49.88125 110.7 
L 124.145 110.7 
L 124.145 102.375 
L 49.88125 102.375 
z
" clip-path="url(#pd888fc96b9)" style="fill: #48446e; stroke: #000000; stroke-linejoin: miter"/>
   </g>
   <g id="patch_13">
    <path d="M 49.88125 119.025 
L 124.145 119.025 
L 124.145 110.7 
L 49.88125 110.7 
z
" clip-path="url(#pd888fc96b9)" style="fill: #48446e; stroke: #000000; stroke-linejoin: miter"/>
   </g>
   <g id="patch_14">
    <path d="M 49.88125 127.35 
L 124.145 127.35 
L 124.145 119.025 
L 49.88125 119.025 
z
" clip-path="url(#pd888fc96b9)" style="fill: #363445; stroke: #000000; stroke-linejoin: miter"/>
   </g>
   <g id="patch_15">
    <path d="M 49.88125 135.675 
L 124.145 135.675 
L 124.145 127.35 
L 49.88125 127.35 
z
" clip-path="url(#pd888fc96b9)" style="fill: #48446e; stroke: #000000; stroke-linejoin: miter"/>
   </g>
   <g id="patch_16">
    <path d="M 49.88125 144 
L 124.145 144 
L 124.145 135.675 
L 49.88125 135.675 
z
" clip-path="url(#pd888fc96b9)" style="fill: #363445; stroke: #000000; stroke-linejoin: miter"/>
   </g>
   <g id="patch_17">
    <path d="M 49.88125 152.325 
L 124.145 152.325 
L 124.145 144 
L 49.88125 144 
z
" clip-path="url(#pd888fc96b9)" style="fill: #363445; stroke: #000000; stroke-linejoin: miter"/>
   </g>
   <g id="patch_18">
    <path d="M 49.88125 160.65 
L 124.145 160.65 
L 124.145 152.325 
L 49.88125 152.325 
z
" clip-path="url(#pd888fc96b9)" style="fill: #363445; stroke: #000000; stroke-linejoin: miter"/>
   </g>
   <g id="patch_19">
    <path d="M 49.88125 168.975 
L 124.145 168.975 
L 124.145 160.65 
L 49.88125 160.65 
z
" clip-path="url(#pd888fc96b9)" style="fill: #363445; stroke: #000000; stroke-linejoin: miter"/>
   </g>
   <g id="patch_20">
    <path d="M 49.88125 177.3 
L 124.145 177.3 
L 124.145 168.975 
L 49.88125 168.975 
z
" clip-path="url(#pd888fc96b9)" style="fill: #363445; stroke: #000000; stroke-linejoin: miter"/>
   </g>
   <g id="patch_21">
    <path d="M 49.88125 185.625 
L 124.145 185.625 
L 124.145 177.3 
L 49.88125 177.3 
z
" clip-path="url(#pd888fc96b9)" style="fill: #363445; stroke: #000000; stroke-linejoin: miter"/>
   </g>
   <g id="patch_22">
    <path d="M 198.40875 35.775 
L 272.6725 35.775 
L 272.6725 27.45 
L 198.40875 27.45 
z
" clip-path="url(#pd888fc96b9)" style="fill: #ffb400; stroke: #000000; stroke-linejoin: miter"/>
   </g>
   <g id="patch_23">
    <path d="M 198.40875 44.1 
L 272.6725 44.1 
L 272.6725 35.775 
L 198.40875 35.775 
z
" clip-path="url(#pd888fc96b9)" style="fill: #ffb400; stroke: #000000; stroke-linejoin: miter"/>
   </g>
   <g id="patch_24">
    <path d="M 198.40875 52.425 
L 272.6725 52.425 
L 272.6725 44.1 
L 198.40875 44.1 
z
" clip-path="url(#pd888fc96b9)" style="fill: #ffb400; stroke: #000000; stroke-linejoin: miter"/>
   </g>
   <g id="patch_25">
    <path d="M 198.40875 60.75 
L 272.6725 60.75 
L 272.6725 52.425 
L 198.40875 52.425 
z
" clip-path="url(#pd888fc96b9)" style="fill: #ffb400; stroke: #000000; stroke-linejoin: miter"/>
   </g>
   <g id="patch_26">
    <path d="M 198.40875 69.075 
L 272.6725 69.075 
L 272.6725 60.75 
L 198.40875 60.75 
z
" clip-path="url(#pd888fc96b9)" style="fill: #5e569b; stroke: #000000; stroke-linejoin: miter"/>
   </g>
   <g id="patch_27">
    <path d="M 198.40875 77.4 
L 272.6725 77.4 
L 272.6725 69.075 
L 198.40875 69.075 
z
" clip-path="url(#pd888fc96b9)" style="fill: #5e569b; stroke: #000000; stroke-linejoin: miter"/>
   </g>
   <g id="patch_28">
    <path d="M 198.40875 85.725 
L 272.6725 85.725 
L 272.6725 77.4 
L 198.40875 77.4 
z
" clip-path="url(#pd888fc96b9)" style="fill: #48446e; stroke: #000000; stroke-linejoin: miter"/>
   </g>
   <g id="patch_29">
    <path d="M 198.40875 94.05 
L 272.6725 94.05 
L 272.6725 85.725 
L 198.40875 85.725 
z
" clip-path="url(#pd888fc96b9)" style="fill: #5e569b; stroke: #000000; stroke-linejoin: miter"/>
   </g>
   <g id="patch_30">
    <path d="M 198.40875 102.375 
L 272.6725 102.375 
L 272.6725 94.05 
L 198.40875 94.05 
z
" clip-path="url(#pd888fc96b9)" style="fill: #5e569b; stroke: #000000; stroke-linejoin: miter"/>
   </g>
   <g id="patch_31">
    <path d="M 198.40875 110.7 
L 272.6725 110.7 
L 272.6725 102.375 
L 198.40875 102.375 
z
" clip-path="url(#pd888fc96b9)" style="fill: #48446e; stroke: #000000; stroke-linejoin: miter"/>
   </g>
   <g id="patch_32">
    <path d="M 198.40875 119.025 
L 272.6725 119.025 
L 272.6725 110.7 
L 198.40875 110.7 
z
" clip-path="url(#pd888fc96b9)" style="fill: #5e569b; stroke: #000000; stroke-linejoin: miter"/>
   </g>
   <g id="patch_33">
    <path d="M 198.40875 127.35 
L 272.6725 127.35 
L 272.6725 119.025 
L 198.40875 119.025 
z
" clip-path="url(#pd888fc96b9)" style="fill: #48446e; stroke: #000000; stroke-linejoin: miter"/>
   </g>
   <g id="patch_34">
    <path d="M 198.40875 135.675 
L 272.6725 135.675 
L 272.6725 127.35 
L 198.40875 127.35 
z
" clip-path="url(#pd888fc96b9)" style="fill: #5e569b; stroke: #000000; stroke-linejoin: miter"/>
   </g>
   <g id="patch_35">
    <path d="M 198.40875 144 
L 272.6725 144 
L 272.6725 135.675 
L 198.40875 135.675 
z
" clip-path="url(#pd888fc96b9)" style="fill: #48446e; stroke: #000000; stroke-linejoin: miter"/>
   </g>
   <g id="patch_36">
    <path d="M 198.40875 152.325 
L 272.6725 152.325 
L 272.6725 144 
L 198.40875 144 
z
" clip-path="url(#pd888fc96b9)" style="fill: #5e569b; stroke: #000000; stroke-linejoin: miter"/>
   </g>
   <g id="patch_37">
    <path d="M 198.40875 160.65 
L 272.6725 160.65 
L 272.6725 152.325 
L 198.40875 152.325 
z
" clip-path="url(#pd888fc96b9)" style="fill: #48446e; stroke: #000000; stroke-linejoin: miter"/>
   </g>
   <g id="patch_38">
    <path d="M 198.40875 168.975 
L 272.6725 168.975 
L 272.6725 160.65 
L 198.40875 160.65 
z
" clip-path="url(#pd888fc96b9)" style="fill: #48446e; stroke: #000000; stroke-linejoin: miter"/>
   </g>
   <g id="patch_39">
    <path d="M 198.40875 177.3 
L 272.6725 177.3 
L 272.6725 168.975 
L 198.40875 168.975 
z
" clip-path="url(#pd888fc96b9)" style="fill: #5e569b; stroke: #000000; stroke-linejoin: miter"/>
   </g>
   <g id="patch_40">
    <path d="M 198.40875 185.625 
L 272.6725 185.625 
L 272.6725 177.3 
L 198.40875 177.3 
z
" clip-path="url(#pd888fc96b9)" style="fill: #48446e; stroke: #000000; stroke-linejoin: miter"/>
   </g>
   <g id="patch_41">
    <path d="M 198.40875 193.95 
L 272.6725 193.95 
L 272.6725 185.625 
L 198.40875 185.625 
z
" clip-path="url(#pd888fc96b9)" style="fill: #48446e; stroke: #000000; stroke-linejoin: miter"/>
   </g>
   <g id="patch_42">
    <path d="M 198.40875 202.275 
L 272.6725 202.275 
L 272.6725 193.95 
L 198.40875 193.95 
z
" clip-path="url(#pd888fc96b9)" style="fill: #363445; stroke: #000000; stroke-linejoin: miter"/>
   </g>
   <g id="patch_43">
    <path d="M 198.40875 210.6 
L 272.6725 210.6 
L 272.6725 202.275 
L 198.40875 202.275 
z
" clip-path="url(#pd888fc96b9)" style="fill: #5e569b; stroke: #000000; stroke-linejoin: miter"/>
   </g>
   <g id="patch_44">
    <path d="M 198.40875 218.925 
L 272.6725 218.925 
L 272.6725 210.6 
L 198.40875 210.6 
z
" clip-path="url(#pd888fc96b9)" style="fill: #48446e; stroke: #000000; stroke-linejoin: miter"/>
   </g>
   <g id="patch_45">
    <path d="M 198.40875 227.25 
L 272.6725 227.25 
L 272.6725 218.925 
L 198.40875 218.925 
z
" clip-path="url(#pd888fc96b9)" style="fill: #48446e; stroke: #000000; stroke-linejoin: miter"/>
   </g>
   <g id="patch_46">
    <path d="M 198.40875 235.575 
L 272.6725 235.575 
L 272.6725 227.25 
L 198.40875 227.25 
z
" clip-path="url(#pd888fc96b9)" style="fill: #363445; stroke: #000000; stroke-linejoin: miter"/>
   </g>
   <g id="patch_47">
    <path d="M 198.40875 243.9 
L 272.6725 243.9 
L 272.6725 235.575 
L 198.40875 235.575 
z
" clip-path="url(#pd888fc96b9)" style="fill: #48446e; stroke: #000000; stroke-linejoin: miter"/>
   </g>
   <g id="patch_48">
    <path d="M 198.40875 252.225 
L 272.6725 252.225 
L 272.6725 243.9 
L 198.40875 243.9 
z
" clip-path="url(#pd888fc96b9)" style="fill: #363445; stroke: #000000; stroke-linejoin: miter"/>
   </g>
   <g id="patch_49">
    <path d="M 198.40875 260.55 
L 272.6725 260.55 
L 272.6725 252.225 
L 198.40875 252.225 
z
" clip-path="url(#pd888fc96b9)" style="fill: #363445; stroke: #000000; stroke-linejoin: miter"/>
   </g>
   <g id="patch_50">
    <path d="M 198.40875 268.875 
L 272.6725 268.875 
L 272.6725 260.55 
L 198.40875 260.55 
z
" clip-path="url(#pd888fc96b9)" style="fill: #363445; stroke: #000000; stroke-linejoin: miter"/>
   </g>
   <g id="patch_51">
    <path d="M 343.223063 35.775 
L 417.486812 35.775 
L 417.486812 27.45 
L 343.223063 27.45 
z
" clip-path="url(#pd888fc96b9)" style="fill: #ffb400; stroke: #000000; stroke-linejoin: miter"/>
   </g>
   <g id="patch_52">
    <path d="M 343.223063 44.1 
L 417.486812 44.1 
L 417.486812 35.775 
L 343.223063 35.775 
z
" clip-path="url(#pd888fc96b9)" style="fill: #5e569b; stroke: #000000; stroke-linejoin: miter"/>
   </g>
   <g id="patch_53">
    <path d="M 343.223063 52.425 
L 417.486812 52.425 
L 417.486812 44.1 
L 343.223063 44.1 
z
" clip-path="url(#pd888fc96b9)" style="fill: #5e569b; stroke: #000000; stroke-linejoin: miter"/>
   </g>
   <g id="patch_54">
    <path d="M 343.223063 60.75 
L 417.486812 60.75 
L 417.486812 52.425 
L 343.223063 52.425 
z
" clip-path="url(#pd888fc96b9)" style="fill: #5e569b; stroke: #000000; stroke-linejoin: miter"/>
   </g>
   <g id="patch_55">
    <path d="M 343.223063 69.075 
L 417.486812 69.075 
L 417.486812 60.75 
L 343.223063 60.75 
z
" clip-path="url(#pd888fc96b9)" style="fill: #48446e; stroke: #000000; stroke-linejoin: miter"/>
   </g>
   <g id="patch_56">
    <path d="M 343.223063 77.4 
L 417.486812 77.4 
L 417.486812 69.075 
L 343.223063 69.075 
z
" clip-path="url(#pd888fc96b9)" style="fill: #48446e; stroke: #000000; stroke-linejoin: miter"/>
   </g>
   <g id="patch_57">
    <path d="M 343.223063 85.725 
L 417.486812 85.725 
L 417.486812 77.4 
L 343.223063 77.4 
z
" clip-path="url(#pd888fc96b9)" style="fill: #48446e; stroke: #000000; stroke-linejoin: miter"/>
   </g>
   <g id="patch_58">
    <path d="M 343.223063 94.05 
L 417.486812 94.05 
L 417.486812 85.725 
L 343.223063 85.725 
z
" clip-path="url(#pd888fc96b9)" style="fill: #5e569b; stroke: #000000; stroke-linejoin: miter"/>
   </g>
   <g id="patch_59">
    <path d="M 343.223063 102.375 
L 417.486812 102.375 
L 417.486812 94.05 
L 343.223063 94.05 
z
" clip-path="url(#pd888fc96b9)" style="fill: #5e569b; stroke: #000000; stroke-linejoin: miter"/>
   </g>
   <g id="patch_60">
    <path d="M 343.223063 110.7 
L 417.486812 110.7 
L 417.486812 102.375 
L 343.223063 102.375 
z
" clip-path="url(#pd888fc96b9)" style="fill: #48446e; stroke: #000000; stroke-linejoin: miter"/>
   </g>
   <g id="patch_61">
    <path d="M 343.223063 119.025 
L 417.486812 119.025 
L 417.486812 110.7 
L 343.223063 110.7 
z
" clip-path="url(#pd888fc96b9)" style="fill: #48446e; stroke: #000000; stroke-linejoin: miter"/>
   </g>
   <g id="patch_62">
    <path d="M 343.223063 127.35 
L 417.486812 127.35 
L 417.486812 119.025 
L 343.223063 119.025 
z
" clip-path="url(#pd888fc96b9)" style="fill: #48446e; stroke: #000000; stroke-linejoin: miter"/>
   </g>
   <g id="patch_63">
    <path d="M 343.223063 135.675 
L 417.486812 135.675 
L 417.486812 127.35 
L 343.223063 127.35 
z
" clip-path="url(#pd888fc96b9)" style="fill: #48446e; stroke: #000000; stroke-linejoin: miter"/>
   </g>
   <g id="patch_64">
    <path d="M 343.223063 144 
L 417.486812 144 
L 417.486812 135.675 
L 343.223063 135.675 
z
" clip-path="url(#pd888fc96b9)" style="fill: #48446e; stroke: #000000; stroke-linejoin: miter"/>
   </g>
   <g id="patch_65">
    <path d="M 343.223063 152.325 
L 417.486812 152.325 
L 417.486812 144 
L 343.223063 144 
z
" clip-path="url(#pd888fc96b9)" style="fill: #48446e; stroke: #000000; stroke-linejoin: miter"/>
   </g>
   <g id="patch_66">
    <path d="M 343.223063 160.65 
L 417.486812 160.65 
L 417.486812 152.325 
L 343.223063 152.325 
z
" clip-path="url(#pd888fc96b9)" style="fill: #363445; stroke: #000000; stroke-linejoin: miter"/>
   </g>
   <g id="patch_67">
    <path d="M 343.223063 168.975 
L 417.486812 168.975 
L 417.486812 160.65 
L 343.223063 160.65 
z
" clip-path="url(#pd888fc96b9)" style="fill: #48446e; stroke: #000000; stroke-linejoin: miter"/>
   </g>
   <g id="patch_68">
    <path d="M 343.223063 177.3 
L 417.486812 177.3 
L 417.486812 168.975 
L 343.223063 168.975 
z
" clip-path="url(#pd888fc96b9)" style="fill: #48446e; stroke: #000000; stroke-linejoin: miter"/>
   </g>
   <g id="patch_69">
    <path d="M 343.223063 185.625 
L 417.486812 185.625 
L 417.486812 177.3 
L 343.223063 177.3 
z
" clip-path="url(#pd888fc96b9)" style="fill: #48446e; stroke: #000000; stroke-linejoin: miter"/>
   </g>
   <g id="patch_70">
    <path d="M 343.223063 193.95 
L 417.486812 193.95 
L 417.486812 185.625 
L 343.223063 185.625 
z
" clip-path="url(#pd888fc96b9)" style="fill: #48446e; stroke: #000000; stroke-linejoin: miter"/>
   </g>
   <g id="patch_71">
    <path d="M 343.223063 202.275 
L 417.486812 202.275 
L 417.486812 193.95 
L 343.223063 193.95 
z
" clip-path="url(#pd888fc96b9)" style="fill: #48446e; stroke: #000000; stroke-linejoin: miter"/>
   </g>
   <g id="patch_72">
    <path d="M 343.223063 210.6 
L 417.486812 210.6 
L 417.486812 202.275 
L 343.223063 202.275 
z
" clip-path="url(#pd888fc96b9)" style="fill: #48446e; stroke: #000000; stroke-linejoin: miter"/>
   </g>
   <g id="patch_73">
    <path d="M 343.223063 218.925 
L 417.486812 218.925 
L 417.486812 210.6 
L 343.223063 210.6 
z
" clip-path="url(#pd888fc96b9)" style="fill: #363445; stroke: #000000; stroke-linejoin: miter"/>
   </g>
   <g id="patch_74">
    <path d="M 343.223063 227.25 
L 417.486812 227.25 
L 417.486812 218.925 
L 343.223063 218.925 
z
" clip-path="url(#pd888fc96b9)" style="fill: #363445; stroke: #000000; stroke-linejoin: miter"/>
   </g>
   <g id="patch_75">
    <path d="M 343.223063 235.575 
L 417.486812 235.575 
L 417.486812 227.25 
L 343.223063 227.25 
z
" clip-path="url(#pd888fc96b9)" style="fill: #363445; stroke: #000000; stroke-linejoin: miter"/>
   </g>
   <g id="patch_76">
    <path d="M 343.223063 243.9 
L 417.486812 243.9 
L 417.486812 235.575 
L 343.223063 235.575 
z
" clip-path="url(#pd888fc96b9)" style="fill: #363445; stroke: #000000; stroke-linejoin: miter"/>
   </g>
   <g id="patch_77">
    <path d="M 343.223063 252.225 
L 417.486812 252.225 
L 417.486812 243.9 
L 343.223063 243.9 
z
" clip-path="url(#pd888fc96b9)" style="fill: #363445; stroke: #000000; stroke-linejoin: miter"/>
   </g>
   <g id="patch_78">
    <path d="M 343.223063 260.55 
L 417.486812 260.55 
L 417.486812 252.225 
L 343.223063 252.225 
z
" clip-path="url(#pd888fc96b9)" style="fill: #363445; stroke: #000000; stroke-linejoin: miter"/>
   </g>
   <g id="patch_79">
    <path d="M 343.223063 268.875 
L 417.486812 268.875 
L 417.486812 260.55 
L 343.223063 260.55 
z
" clip-path="url(#pd888fc96b9)" style="fill: #363445; stroke: #000000; stroke-linejoin: miter"/>
   </g>
   <g id="matplotlib.axis_1"/>
   <g id="matplotlib.axis_2">
    <g id="ytick_1">
     <g id="line2d_62">
      <defs>
       <path id="m0045198efe" d="M 0 0 
L -6 0 
" style="stroke: #000000"/>
      </defs>
      <g>
       <use xlink:href="#m0045198efe" x="49.88125" y="19.125" style="stroke: #000000"/>
      </g>
     </g>
     <g id="text_1">
      <!-- 0.0 -->
      <g transform="translate(24.478125 22.924219) scale(0.1 -0.1)">
       <defs>
        <path id="DejaVuSerif-30" d="M 2034 219 
Q 2513 219 2750 744 
Q 2988 1269 2988 2328 
Q 2988 3391 2750 3916 
Q 2513 4441 2034 4441 
Q 1556 4441 1318 3916 
Q 1081 3391 1081 2328 
Q 1081 1269 1318 744 
Q 1556 219 2034 219 
z
M 2034 -91 
Q 1275 -91 848 546 
Q 422 1184 422 2328 
Q 422 3475 848 4112 
Q 1275 4750 2034 4750 
Q 2797 4750 3222 4112 
Q 3647 3475 3647 2328 
Q 3647 1184 3222 546 
Q 2797 -91 2034 -91 
z
" transform="scale(0.015625)"/>
        <path id="DejaVuSerif-2e" d="M 603 325 
Q 603 500 722 622 
Q 841 744 1019 744 
Q 1191 744 1312 622 
Q 1434 500 1434 325 
Q 1434 153 1312 31 
Q 1191 -91 1019 -91 
Q 841 -91 722 29 
Q 603 150 603 325 
z
" transform="scale(0.015625)"/>
       </defs>
       <use xlink:href="#DejaVuSerif-30"/>
       <use xlink:href="#DejaVuSerif-2e" x="63.623047"/>
       <use xlink:href="#DejaVuSerif-30" x="95.410156"/>
      </g>
     </g>
    </g>
    <g id="ytick_2">
     <g id="line2d_63">
      <g>
       <use xlink:href="#m0045198efe" x="49.88125" y="60.75" style="stroke: #000000"/>
      </g>
     </g>
     <g id="text_2">
      <!-- 0.5 -->
      <g transform="translate(24.478125 64.549219) scale(0.1 -0.1)">
       <defs>
        <path id="DejaVuSerif-35" d="M 3219 4666 
L 3219 4153 
L 1081 4153 
L 1081 2816 
Q 1244 2928 1461 2984 
Q 1678 3041 1947 3041 
Q 2703 3041 3140 2622 
Q 3578 2203 3578 1478 
Q 3578 738 3136 323 
Q 2694 -91 1894 -91 
Q 1572 -91 1234 -12 
Q 897 66 544 225 
L 544 1131 
L 897 1131 
Q 925 688 1179 453 
Q 1434 219 1894 219 
Q 2388 219 2653 544 
Q 2919 869 2919 1478 
Q 2919 2084 2655 2407 
Q 2391 2731 1894 2731 
Q 1613 2731 1398 2631 
Q 1184 2531 1019 2322 
L 750 2322 
L 750 4666 
L 3219 4666 
z
" transform="scale(0.015625)"/>
       </defs>
       <use xlink:href="#DejaVuSerif-30"/>
       <use xlink:href="#DejaVuSerif-2e" x="63.623047"/>
       <use xlink:href="#DejaVuSerif-35" x="95.410156"/>
      </g>
     </g>
    </g>
    <g id="ytick_3">
     <g id="line2d_64">
      <g>
       <use xlink:href="#m0045198efe" x="49.88125" y="102.375" style="stroke: #000000"/>
      </g>
     </g>
     <g id="text_3">
      <!-- 1.0 -->
      <g transform="translate(24.478125 106.174219) scale(0.1 -0.1)">
       <defs>
        <path id="DejaVuSerif-31" d="M 909 0 
L 909 331 
L 1722 331 
L 1722 4213 
L 781 3603 
L 781 4013 
L 1919 4750 
L 2350 4750 
L 2350 331 
L 3163 331 
L 3163 0 
L 909 0 
z
" transform="scale(0.015625)"/>
       </defs>
       <use xlink:href="#DejaVuSerif-31"/>
       <use xlink:href="#DejaVuSerif-2e" x="63.623047"/>
       <use xlink:href="#DejaVuSerif-30" x="95.410156"/>
      </g>
     </g>
    </g>
    <g id="ytick_4">
     <g id="line2d_65">
      <g>
       <use xlink:href="#m0045198efe" x="49.88125" y="144" style="stroke: #000000"/>
      </g>
     </g>
     <g id="text_4">
      <!-- 1.5 -->
      <g transform="translate(24.478125 147.799219) scale(0.1 -0.1)">
       <use xlink:href="#DejaVuSerif-31"/>
       <use xlink:href="#DejaVuSerif-2e" x="63.623047"/>
       <use xlink:href="#DejaVuSerif-35" x="95.410156"/>
      </g>
     </g>
    </g>
    <g id="ytick_5">
     <g id="line2d_66">
      <g>
       <use xlink:href="#m0045198efe" x="49.88125" y="185.625" style="stroke: #000000"/>
      </g>
     </g>
     <g id="text_5">
      <!-- 2.0 -->
      <g transform="translate(24.478125 189.424219) scale(0.1 -0.1)">
       <defs>
        <path id="DejaVuSerif-32" d="M 819 3553 
L 469 3553 
L 469 4384 
Q 803 4563 1142 4656 
Q 1481 4750 1806 4750 
Q 2534 4750 2956 4397 
Q 3378 4044 3378 3438 
Q 3378 2753 2422 1800 
Q 2347 1728 2309 1691 
L 1131 513 
L 3078 513 
L 3078 1088 
L 3444 1088 
L 3444 0 
L 434 0 
L 434 341 
L 1850 1753 
Q 2319 2222 2519 2614 
Q 2719 3006 2719 3438 
Q 2719 3909 2473 4175 
Q 2228 4441 1797 4441 
Q 1350 4441 1106 4219 
Q 863 3997 819 3553 
z
" transform="scale(0.015625)"/>
       </defs>
       <use xlink:href="#DejaVuSerif-32"/>
       <use xlink:href="#DejaVuSerif-2e" x="63.623047"/>
       <use xlink:href="#DejaVuSerif-30" x="95.410156"/>
      </g>
     </g>
    </g>
    <g id="ytick_6">
     <g id="line2d_67">
      <g>
       <use xlink:href="#m0045198efe" x="49.88125" y="227.25" style="stroke: #000000"/>
      </g>
     </g>
     <g id="text_6">
      <!-- 2.5 -->
      <g transform="translate(24.478125 231.049219) scale(0.1 -0.1)">
       <use xlink:href="#DejaVuSerif-32"/>
       <use xlink:href="#DejaVuSerif-2e" x="63.623047"/>
       <use xlink:href="#DejaVuSerif-35" x="95.410156"/>
      </g>
     </g>
    </g>
    <g id="ytick_7">
     <g id="line2d_68">
      <g>
       <use xlink:href="#m0045198efe" x="49.88125" y="268.875" style="stroke: #000000"/>
      </g>
     </g>
     <g id="text_7">
      <!-- 3.0 -->
      <g transform="translate(24.478125 272.674219) scale(0.1 -0.1)">
       <defs>
        <path id="DejaVuSerif-33" d="M 622 4469 
Q 988 4606 1323 4678 
Q 1659 4750 1953 4750 
Q 2638 4750 3022 4454 
Q 3406 4159 3406 3634 
Q 3406 3213 3140 2930 
Q 2875 2647 2388 2547 
Q 2963 2466 3280 2130 
Q 3597 1794 3597 1259 
Q 3597 606 3158 257 
Q 2719 -91 1894 -91 
Q 1528 -91 1179 -12 
Q 831 66 488 225 
L 488 1131 
L 838 1131 
Q 869 681 1141 450 
Q 1413 219 1906 219 
Q 2384 219 2661 495 
Q 2938 772 2938 1253 
Q 2938 1803 2653 2086 
Q 2369 2369 1819 2369 
L 1522 2369 
L 1522 2688 
L 1678 2688 
Q 2225 2688 2498 2914 
Q 2772 3141 2772 3597 
Q 2772 4006 2547 4223 
Q 2322 4441 1900 4441 
Q 1478 4441 1245 4241 
Q 1013 4041 972 3647 
L 622 3647 
L 622 4469 
z
" transform="scale(0.015625)"/>
       </defs>
       <use xlink:href="#DejaVuSerif-33"/>
       <use xlink:href="#DejaVuSerif-2e" x="63.623047"/>
       <use xlink:href="#DejaVuSerif-30" x="95.410156"/>
      </g>
     </g>
    </g>
    <g id="text_8">
     <!-- Depth [m] -->
     <g transform="translate(18.398438 169.630469) rotate(-90) scale(0.1 -0.1)">
      <defs>
       <path id="DejaVuSerif-44" d="M 1581 331 
L 2163 331 
Q 3072 331 3558 850 
Q 4044 1369 4044 2338 
Q 4044 3306 3559 3818 
Q 3075 4331 2163 4331 
L 1581 4331 
L 1581 331 
z
M 353 0 
L 353 331 
L 947 331 
L 947 4331 
L 353 4331 
L 353 4666 
L 2209 4666 
Q 3416 4666 4089 4050 
Q 4763 3434 4763 2338 
Q 4763 1238 4088 619 
Q 3413 0 2209 0 
L 353 0 
z
" transform="scale(0.015625)"/>
       <path id="DejaVuSerif-65" d="M 3469 1600 
L 991 1600 
L 991 1575 
Q 991 903 1244 561 
Q 1497 219 1991 219 
Q 2369 219 2611 417 
Q 2853 616 2950 1006 
L 3413 1006 
Q 3275 459 2904 184 
Q 2534 -91 1931 -91 
Q 1203 -91 761 389 
Q 319 869 319 1663 
Q 319 2450 753 2931 
Q 1188 3413 1894 3413 
Q 2647 3413 3050 2948 
Q 3453 2484 3469 1600 
z
M 2791 1931 
Q 2772 2513 2545 2808 
Q 2319 3103 1894 3103 
Q 1497 3103 1269 2806 
Q 1041 2509 991 1931 
L 2791 1931 
z
" transform="scale(0.015625)"/>
       <path id="DejaVuSerif-70" d="M 1313 1825 
L 1313 1497 
Q 1313 897 1542 583 
Q 1772 269 2209 269 
Q 2650 269 2876 622 
Q 3103 975 3103 1663 
Q 3103 2353 2876 2703 
Q 2650 3053 2209 3053 
Q 1772 3053 1542 2737 
Q 1313 2422 1313 1825 
z
M 738 2988 
L 184 2988 
L 184 3322 
L 1313 3322 
L 1313 2803 
Q 1481 3116 1742 3264 
Q 2003 3413 2388 3413 
Q 3000 3413 3387 2928 
Q 3775 2444 3775 1663 
Q 3775 881 3387 395 
Q 3000 -91 2388 -91 
Q 2003 -91 1742 57 
Q 1481 206 1313 519 
L 1313 -997 
L 1856 -997 
L 1856 -1331 
L 184 -1331 
L 184 -997 
L 738 -997 
L 738 2988 
z
" transform="scale(0.015625)"/>
       <path id="DejaVuSerif-74" d="M 691 2988 
L 184 2988 
L 184 3322 
L 691 3322 
L 691 4353 
L 1269 4353 
L 1269 3322 
L 2350 3322 
L 2350 2988 
L 1269 2988 
L 1269 878 
Q 1269 456 1350 337 
Q 1431 219 1650 219 
Q 1875 219 1978 351 
Q 2081 484 2088 781 
L 2522 781 
Q 2497 328 2275 118 
Q 2053 -91 1600 -91 
Q 1103 -91 897 129 
Q 691 350 691 878 
L 691 2988 
z
" transform="scale(0.015625)"/>
       <path id="DejaVuSerif-68" d="M 263 0 
L 263 331 
L 781 331 
L 781 4531 
L 231 4531 
L 231 4863 
L 1356 4863 
L 1356 2731 
Q 1516 3069 1770 3241 
Q 2025 3413 2363 3413 
Q 2913 3413 3172 3097 
Q 3431 2781 3431 2113 
L 3431 331 
L 3944 331 
L 3944 0 
L 2356 0 
L 2356 331 
L 2853 331 
L 2853 1931 
Q 2853 2541 2704 2764 
Q 2556 2988 2175 2988 
Q 1775 2988 1565 2697 
Q 1356 2406 1356 1850 
L 1356 331 
L 1856 331 
L 1856 0 
L 263 0 
z
" transform="scale(0.015625)"/>
       <path id="DejaVuSerif-20" transform="scale(0.015625)"/>
       <path id="DejaVuSerif-5b" d="M 550 4863 
L 2003 4863 
L 2003 4531 
L 1147 4531 
L 1147 -513 
L 2003 -513 
L 2003 -844 
L 550 -844 
L 550 4863 
z
" transform="scale(0.015625)"/>
       <path id="DejaVuSerif-6d" d="M 3316 2675 
Q 3481 3041 3739 3227 
Q 3997 3413 4341 3413 
Q 4863 3413 5119 3089 
Q 5375 2766 5375 2113 
L 5375 331 
L 5894 331 
L 5894 0 
L 4300 0 
L 4300 331 
L 4800 331 
L 4800 2047 
Q 4800 2556 4650 2772 
Q 4500 2988 4153 2988 
Q 3769 2988 3567 2697 
Q 3366 2406 3366 1850 
L 3366 331 
L 3866 331 
L 3866 0 
L 2291 0 
L 2291 331 
L 2791 331 
L 2791 2069 
Q 2791 2566 2641 2777 
Q 2491 2988 2144 2988 
Q 1759 2988 1557 2697 
Q 1356 2406 1356 1850 
L 1356 331 
L 1856 331 
L 1856 0 
L 263 0 
L 263 331 
L 781 331 
L 781 2994 
L 231 2994 
L 231 3322 
L 1356 3322 
L 1356 2731 
Q 1516 3063 1762 3238 
Q 2009 3413 2322 3413 
Q 2709 3413 2968 3220 
Q 3228 3028 3316 2675 
z
" transform="scale(0.015625)"/>
       <path id="DejaVuSerif-5d" d="M 1947 4863 
L 1947 -844 
L 494 -844 
L 494 -513 
L 1350 -513 
L 1350 4531 
L 494 4531 
L 494 4863 
L 1947 4863 
z
" transform="scale(0.015625)"/>
      </defs>
      <use xlink:href="#DejaVuSerif-44"/>
      <use xlink:href="#DejaVuSerif-65" x="80.175781"/>
      <use xlink:href="#DejaVuSerif-70" x="139.355469"/>
      <use xlink:href="#DejaVuSerif-74" x="203.369141"/>
      <use xlink:href="#DejaVuSerif-68" x="243.554688"/>
      <use xlink:href="#DejaVuSerif-20" x="307.958984"/>
      <use xlink:href="#DejaVuSerif-5b" x="339.746094"/>
      <use xlink:href="#DejaVuSerif-6d" x="378.759766"/>
      <use xlink:href="#DejaVuSerif-5d" x="473.583984"/>
     </g>
    </g>
   </g>
   <g id="patch_80">
    <path d="M 49.88125 277.2 
L 49.88125 10.8 
" style="fill: none; stroke: #000000; stroke-width: 0.8; stroke-linejoin: miter; stroke-linecap: square"/>
   </g>
   <g id="patch_81">
    <path d="M 49.88125 277.2 
L 421.2 277.2 
" style="fill: none; stroke: #000000; stroke-width: 0.8; stroke-linejoin: miter; stroke-linecap: square"/>
   </g>
   <g id="legend_1">
    <g id="patch_82">
     <path d="M 56.88125 272.2 
L 149.301563 272.2 
Q 151.301563 272.2 151.301563 270.2 
L 151.301563 196.841563 
Q 151.301563 194.841563 149.301563 194.841563 
L 56.88125 194.841563 
Q 54.88125 194.841563 54.88125 196.841563 
L 54.88125 270.2 
Q 54.88125 272.2 56.88125 272.2 
z
" style="fill: #ffffff; opacity: 0.5; stroke: #000000; stroke-linejoin: miter"/>
    </g>
    <g id="text_9">
     <!-- Environtments -->
     <g transform="translate(61.929063 207.199844) scale(0.11 -0.11)">
      <defs>
       <path id="DejaVuSerif-45" d="M 353 0 
L 353 331 
L 947 331 
L 947 4331 
L 353 4331 
L 353 4666 
L 4109 4666 
L 4109 3628 
L 3725 3628 
L 3725 4281 
L 1581 4281 
L 1581 2719 
L 3109 2719 
L 3109 3303 
L 3494 3303 
L 3494 1753 
L 3109 1753 
L 3109 2338 
L 1581 2338 
L 1581 384 
L 3775 384 
L 3775 1038 
L 4159 1038 
L 4159 0 
L 353 0 
z
" transform="scale(0.015625)"/>
       <path id="DejaVuSerif-6e" d="M 263 0 
L 263 331 
L 781 331 
L 781 2988 
L 231 2988 
L 231 3322 
L 1356 3322 
L 1356 2731 
Q 1516 3069 1770 3241 
Q 2025 3413 2363 3413 
Q 2913 3413 3172 3097 
Q 3431 2781 3431 2113 
L 3431 331 
L 3944 331 
L 3944 0 
L 2356 0 
L 2356 331 
L 2853 331 
L 2853 1931 
Q 2853 2541 2703 2767 
Q 2553 2994 2175 2994 
Q 1775 2994 1565 2701 
Q 1356 2409 1356 1850 
L 1356 331 
L 1856 331 
L 1856 0 
L 263 0 
z
" transform="scale(0.015625)"/>
       <path id="DejaVuSerif-76" d="M 1581 0 
L 359 2988 
L -19 2988 
L -19 3322 
L 1509 3322 
L 1509 2988 
L 978 2988 
L 1913 703 
L 2847 2988 
L 2350 2988 
L 2350 3322 
L 3597 3322 
L 3597 2988 
L 3225 2988 
L 2003 0 
L 1581 0 
z
" transform="scale(0.015625)"/>
       <path id="DejaVuSerif-69" d="M 622 4353 
Q 622 4497 726 4603 
Q 831 4709 978 4709 
Q 1122 4709 1226 4603 
Q 1331 4497 1331 4353 
Q 1331 4206 1228 4103 
Q 1125 4000 978 4000 
Q 831 4000 726 4103 
Q 622 4206 622 4353 
z
M 1356 331 
L 1900 331 
L 1900 0 
L 231 0 
L 231 331 
L 781 331 
L 781 2988 
L 231 2988 
L 231 3322 
L 1356 3322 
L 1356 331 
z
" transform="scale(0.015625)"/>
       <path id="DejaVuSerif-72" d="M 3059 3328 
L 3059 2497 
L 2728 2497 
Q 2713 2744 2591 2866 
Q 2469 2988 2234 2988 
Q 1809 2988 1582 2694 
Q 1356 2400 1356 1850 
L 1356 331 
L 2022 331 
L 2022 0 
L 263 0 
L 263 331 
L 781 331 
L 781 2994 
L 231 2994 
L 231 3322 
L 1356 3322 
L 1356 2731 
Q 1525 3078 1790 3245 
Q 2056 3413 2438 3413 
Q 2578 3413 2733 3391 
Q 2888 3369 3059 3328 
z
" transform="scale(0.015625)"/>
       <path id="DejaVuSerif-6f" d="M 1925 219 
Q 2388 219 2623 584 
Q 2859 950 2859 1663 
Q 2859 2375 2623 2739 
Q 2388 3103 1925 3103 
Q 1463 3103 1227 2739 
Q 991 2375 991 1663 
Q 991 950 1228 584 
Q 1466 219 1925 219 
z
M 1925 -91 
Q 1200 -91 759 389 
Q 319 869 319 1663 
Q 319 2456 758 2934 
Q 1197 3413 1925 3413 
Q 2653 3413 3092 2934 
Q 3531 2456 3531 1663 
Q 3531 869 3092 389 
Q 2653 -91 1925 -91 
z
" transform="scale(0.015625)"/>
       <path id="DejaVuSerif-73" d="M 359 184 
L 359 959 
L 691 959 
Q 703 588 923 403 
Q 1144 219 1575 219 
Q 1963 219 2166 364 
Q 2369 509 2369 788 
Q 2369 1006 2220 1140 
Q 2072 1275 1594 1428 
L 1178 1569 
Q 750 1706 558 1912 
Q 366 2119 366 2438 
Q 366 2894 700 3153 
Q 1034 3413 1625 3413 
Q 1888 3413 2178 3344 
Q 2469 3275 2778 3144 
L 2778 2419 
L 2447 2419 
Q 2434 2741 2221 2922 
Q 2009 3103 1644 3103 
Q 1281 3103 1095 2975 
Q 909 2847 909 2591 
Q 909 2381 1050 2254 
Q 1191 2128 1613 1997 
L 2069 1856 
Q 2541 1709 2748 1489 
Q 2956 1269 2956 922 
Q 2956 450 2595 179 
Q 2234 -91 1600 -91 
Q 1278 -91 972 -22 
Q 666 47 359 184 
z
" transform="scale(0.015625)"/>
      </defs>
      <use xlink:href="#DejaVuSerif-45"/>
      <use xlink:href="#DejaVuSerif-6e" x="72.998047"/>
      <use xlink:href="#DejaVuSerif-76" x="137.402344"/>
      <use xlink:href="#DejaVuSerif-69" x="193.896484"/>
      <use xlink:href="#DejaVuSerif-72" x="225.878906"/>
      <use xlink:href="#DejaVuSerif-6f" x="273.681641"/>
      <use xlink:href="#DejaVuSerif-6e" x="333.886719"/>
      <use xlink:href="#DejaVuSerif-74" x="398.291016"/>
      <use xlink:href="#DejaVuSerif-6d" x="438.476562"/>
      <use xlink:href="#DejaVuSerif-65" x="533.300781"/>
      <use xlink:href="#DejaVuSerif-6e" x="592.480469"/>
      <use xlink:href="#DejaVuSerif-74" x="656.884766"/>
      <use xlink:href="#DejaVuSerif-73" x="697.070312"/>
     </g>
    </g>
    <g id="patch_83">
     <path d="M 58.88125 222.085938 
L 78.88125 222.085938 
L 78.88125 215.085938 
L 58.88125 215.085938 
z
" style="fill: #363445; stroke: #000000; stroke-linejoin: miter"/>
    </g>
    <g id="text_10">
     <!-- Deep sea -->
     <g transform="translate(86.88125 222.085938) scale(0.1 -0.1)">
      <defs>
       <path id="DejaVuSerif-61" d="M 2547 1044 
L 2547 1747 
L 1806 1747 
Q 1378 1747 1168 1562 
Q 959 1378 959 997 
Q 959 650 1171 447 
Q 1384 244 1747 244 
Q 2106 244 2326 466 
Q 2547 688 2547 1044 
z
M 3122 2075 
L 3122 331 
L 3634 331 
L 3634 0 
L 2547 0 
L 2547 359 
Q 2356 128 2106 18 
Q 1856 -91 1522 -91 
Q 969 -91 644 203 
Q 319 497 319 997 
Q 319 1513 691 1797 
Q 1063 2081 1741 2081 
L 2547 2081 
L 2547 2309 
Q 2547 2688 2317 2895 
Q 2088 3103 1672 3103 
Q 1328 3103 1125 2947 
Q 922 2791 872 2484 
L 575 2484 
L 575 3156 
Q 875 3284 1158 3348 
Q 1441 3413 1709 3413 
Q 2400 3413 2761 3070 
Q 3122 2728 3122 2075 
z
" transform="scale(0.015625)"/>
      </defs>
      <use xlink:href="#DejaVuSerif-44"/>
      <use xlink:href="#DejaVuSerif-65" x="80.175781"/>
      <use xlink:href="#DejaVuSerif-65" x="139.355469"/>
      <use xlink:href="#DejaVuSerif-70" x="198.535156"/>
      <use xlink:href="#DejaVuSerif-20" x="262.548828"/>
      <use xlink:href="#DejaVuSerif-73" x="294.335938"/>
      <use xlink:href="#DejaVuSerif-65" x="345.654297"/>
      <use xlink:href="#DejaVuSerif-61" x="404.833984"/>
     </g>
    </g>
    <g id="patch_84">
     <path d="M 58.88125 236.764062 
L 78.88125 236.764062 
L 78.88125 229.764062 
L 58.88125 229.764062 
z
" style="fill: #48446e; stroke: #000000; stroke-linejoin: miter"/>
    </g>
    <g id="text_11">
     <!-- Shallow sea -->
     <g transform="translate(86.88125 236.764062) scale(0.1 -0.1)">
      <defs>
       <path id="DejaVuSerif-53" d="M 594 225 
L 594 1288 
L 953 1284 
Q 969 753 1261 498 
Q 1553 244 2150 244 
Q 2706 244 2998 464 
Q 3291 684 3291 1106 
Q 3291 1444 3114 1625 
Q 2938 1806 2369 1978 
L 1753 2163 
Q 1084 2366 811 2669 
Q 538 2972 538 3500 
Q 538 4094 959 4422 
Q 1381 4750 2144 4750 
Q 2469 4750 2856 4679 
Q 3244 4609 3681 4475 
L 3681 3481 
L 3328 3481 
Q 3275 3975 2998 4195 
Q 2722 4416 2156 4416 
Q 1663 4416 1405 4214 
Q 1147 4013 1147 3628 
Q 1147 3294 1340 3103 
Q 1534 2913 2163 2725 
L 2741 2553 
Q 3375 2363 3645 2067 
Q 3916 1772 3916 1275 
Q 3916 597 3481 253 
Q 3047 -91 2188 -91 
Q 1803 -91 1404 -12 
Q 1006 66 594 225 
z
" transform="scale(0.015625)"/>
       <path id="DejaVuSerif-6c" d="M 1313 331 
L 1856 331 
L 1856 0 
L 184 0 
L 184 331 
L 738 331 
L 738 4531 
L 184 4531 
L 184 4863 
L 1313 4863 
L 1313 331 
z
" transform="scale(0.015625)"/>
       <path id="DejaVuSerif-77" d="M 3072 3322 
L 3922 728 
L 4672 2988 
L 4191 2988 
L 4191 3322 
L 5394 3322 
L 5394 2988 
L 5025 2988 
L 4038 0 
L 3559 0 
L 2741 2484 
L 1919 0 
L 1459 0 
L 475 2988 
L 103 2988 
L 103 3322 
L 1606 3322 
L 1606 2988 
L 1069 2988 
L 1813 728 
L 2669 3322 
L 3072 3322 
z
" transform="scale(0.015625)"/>
      </defs>
      <use xlink:href="#DejaVuSerif-53"/>
      <use xlink:href="#DejaVuSerif-68" x="68.505859"/>
      <use xlink:href="#DejaVuSerif-61" x="132.910156"/>
      <use xlink:href="#DejaVuSerif-6c" x="192.529297"/>
      <use xlink:href="#DejaVuSerif-6c" x="224.511719"/>
      <use xlink:href="#DejaVuSerif-6f" x="256.494141"/>
      <use xlink:href="#DejaVuSerif-77" x="316.699219"/>
      <use xlink:href="#DejaVuSerif-20" x="402.294922"/>
      <use xlink:href="#DejaVuSerif-73" x="434.082031"/>
      <use xlink:href="#DejaVuSerif-65" x="485.400391"/>
      <use xlink:href="#DejaVuSerif-61" x="544.580078"/>
     </g>
    </g>
    <g id="patch_85">
     <path d="M 58.88125 251.442187 
L 78.88125 251.442187 
L 78.88125 244.442187 
L 58.88125 244.442187 
z
" style="fill: #5e569b; stroke: #000000; stroke-linejoin: miter"/>
    </g>
    <g id="text_12">
     <!-- Deltaic -->
     <g transform="translate(86.88125 251.442187) scale(0.1 -0.1)">
      <defs>
       <path id="DejaVuSerif-63" d="M 3291 997 
Q 3169 466 2822 187 
Q 2475 -91 1925 -91 
Q 1200 -91 759 389 
Q 319 869 319 1663 
Q 319 2459 759 2936 
Q 1200 3413 1925 3413 
Q 2241 3413 2553 3339 
Q 2866 3266 3181 3116 
L 3181 2266 
L 2847 2266 
Q 2781 2703 2561 2903 
Q 2341 3103 1931 3103 
Q 1466 3103 1228 2742 
Q 991 2381 991 1663 
Q 991 944 1227 581 
Q 1463 219 1931 219 
Q 2303 219 2525 412 
Q 2747 606 2828 997 
L 3291 997 
z
" transform="scale(0.015625)"/>
      </defs>
      <use xlink:href="#DejaVuSerif-44"/>
      <use xlink:href="#DejaVuSerif-65" x="80.175781"/>
      <use xlink:href="#DejaVuSerif-6c" x="139.355469"/>
      <use xlink:href="#DejaVuSerif-74" x="171.337891"/>
      <use xlink:href="#DejaVuSerif-61" x="211.523438"/>
      <use xlink:href="#DejaVuSerif-69" x="271.142578"/>
      <use xlink:href="#DejaVuSerif-63" x="303.125"/>
     </g>
    </g>
    <g id="patch_86">
     <path d="M 58.88125 266.120313 
L 78.88125 266.120313 
L 78.88125 259.120313 
L 58.88125 259.120313 
z
" style="fill: #ffb400; stroke: #000000; stroke-linejoin: miter"/>
    </g>
    <g id="text_13">
     <!-- Fluvial -->
     <g transform="translate(86.88125 266.120313) scale(0.1 -0.1)">
      <defs>
       <path id="DejaVuSerif-46" d="M 353 0 
L 353 331 
L 947 331 
L 947 4331 
L 353 4331 
L 353 4666 
L 4172 4666 
L 4172 3628 
L 3788 3628 
L 3788 4281 
L 1581 4281 
L 1581 2719 
L 3175 2719 
L 3175 3303 
L 3559 3303 
L 3559 1753 
L 3175 1753 
L 3175 2338 
L 1581 2338 
L 1581 331 
L 2328 331 
L 2328 0 
L 353 0 
z
" transform="scale(0.015625)"/>
       <path id="DejaVuSerif-75" d="M 2266 3322 
L 3341 3322 
L 3341 331 
L 3884 331 
L 3884 0 
L 2766 0 
L 2766 588 
Q 2606 256 2353 82 
Q 2100 -91 1766 -91 
Q 1213 -91 952 223 
Q 691 538 691 1209 
L 691 2988 
L 172 2988 
L 172 3322 
L 1269 3322 
L 1269 1388 
Q 1269 781 1417 556 
Q 1566 331 1947 331 
Q 2347 331 2556 625 
Q 2766 919 2766 1478 
L 2766 2988 
L 2266 2988 
L 2266 3322 
z
" transform="scale(0.015625)"/>
      </defs>
      <use xlink:href="#DejaVuSerif-46"/>
      <use xlink:href="#DejaVuSerif-6c" x="69.384766"/>
      <use xlink:href="#DejaVuSerif-75" x="101.367188"/>
      <use xlink:href="#DejaVuSerif-76" x="165.771484"/>
      <use xlink:href="#DejaVuSerif-69" x="222.265625"/>
      <use xlink:href="#DejaVuSerif-61" x="254.248047"/>
      <use xlink:href="#DejaVuSerif-6c" x="313.867188"/>
     </g>
    </g>
   </g>
  </g>
 </g>
 <defs>
  <clipPath id="pd888fc96b9">
   <rect x="49.88125" y="10.8" width="371.31875" height="266.4"/>
  </clipPath>
 </defs>
</svg>
